HIERARCHY
ROOT Hips
{
	OFFSET 0.00000 0.00000 0.00000
	CHANNELS 6 Xposition Yposition Zposition Zrotation Yrotation Xrotation 
	JOINT LHipJoint
	{
		OFFSET 0 0 0
		CHANNELS 3 Zrotation Yrotation Xrotation
		JOINT LeftHip
		{
			OFFSET 1.44361 -1.63093 0.70831
			CHANNELS 3 Zrotation Yrotation Xrotation
			JOINT LeftKnee
			{
				OFFSET 2.20103 -6.04728 0.00000
				CHANNELS 3 Zrotation Yrotation Xrotation
				JOINT LeftAnkle
				{
					OFFSET 2.54154 -6.98283 0.00000
					CHANNELS 3 Zrotation Yrotation Xrotation
					JOINT LeftToe
					{
						OFFSET 0.05971 -0.16406 1.77582
						CHANNELS 3 Zrotation Yrotation Xrotation
						End Site
						{
							OFFSET 0.00000 -0.00000 0.90832
						}
					}
				}
			}
		}
	}
	JOINT RHipJoint
	{
		OFFSET 0 0 0
		CHANNELS 3 Zrotation Yrotation Xrotation
		JOINT RightHip
		{
			OFFSET -1.65838 -1.63093 0.70830
			CHANNELS 3 Zrotation Yrotation Xrotation
			JOINT RightKnee
			{
				OFFSET -2.26926 -6.23475 0.00000
				CHANNELS 3 Zrotation Yrotation Xrotation
				JOINT RightAnkle
				{
					OFFSET -2.34808 -6.45129 0.00000
					CHANNELS 3 Zrotation Yrotation Xrotation
					JOINT RightToe
					{
						OFFSET -0.18633 -0.51195 1.68539
						CHANNELS 3 Zrotation Yrotation Xrotation
						End Site
						{
							OFFSET -0.00000 -0.00000 0.88927
						}
					}
				}
			}
		}
	}
	JOINT lowerback
	{
		OFFSET 0 0 0
		CHANNELS 3 Zrotation Yrotation Xrotation
		JOINT Chest
		{
			OFFSET -0.10393 2.01691 0.06920
			CHANNELS 3 Zrotation Yrotation Xrotation
			JOINT Chest2
			{
				OFFSET 0.04092 2.01302 -0.05283
				CHANNELS 3 Zrotation Yrotation Xrotation
				JOINT lowerneck
				{
					OFFSET 0 0 0
					CHANNELS 3 Zrotation Yrotation Xrotation
					JOINT Neck
					{
						OFFSET -0.02870 1.58978 -0.03113
						CHANNELS 3 Zrotation Yrotation Xrotation
						JOINT Head
						{
							OFFSET 0.11532 1.54326 -0.29195
							CHANNELS 3 Zrotation Yrotation Xrotation
							End Site
							{
								OFFSET 0.04056 1.59999 -0.09535
							}
						}
					}
				}
				JOINT LeftCollar
				{
					OFFSET 0 0 0
					CHANNELS 3 Zrotation Yrotation Xrotation
					JOINT LeftShoulder
					{
						OFFSET 3.30641 1.15764 0.01104
CHANNELS 3 Zrotation Xrotation Yrotation
						JOINT LeftElbow
						{
OFFSET 0 -4.632080 0.000000
CHANNELS 3 Zrotation Xrotation Yrotation
							JOINT LeftWrist
							{
OFFSET 0 -3.419240 -0.000000
CHANNELS 3 Zrotation Xrotation Yrotation
								JOINT lhand
								{
									OFFSET 0 0 0
CHANNELS 3 Zrotation Xrotation Yrotation
									JOINT LFingers
									{
OFFSET 0 -0.625370 -0.000000
CHANNELS 3 Zrotation Xrotation Yrotation
										End Site
										{
OFFSET 0 -0.504190 -0.000000
										}
									}
								}
								JOINT LThumb
								{
OFFSET 0 0.000000 0.000000
CHANNELS 3 Zrotation Xrotation Yrotation
									End Site
									{
OFFSET 0 -0.511890 0.511890
									}
								}
							}
						}
					}
				}
				JOINT RightCollar
				{
					OFFSET 0 0 0
					CHANNELS 3 Zrotation Yrotation Xrotation
					JOINT RightShoulder
					{
						OFFSET -3.78081 1.02180 -0.16609
CHANNELS 3 Zrotation Xrotation Yrotation
						JOINT RightElbow
						{
OFFSET 0 -4.406400 -0.000000
CHANNELS 3 Zrotation Xrotation Yrotation
							JOINT RightWrist
							{
OFFSET 0 -3.446750 0.000000
CHANNELS 3 Zrotation Xrotation Yrotation
								JOINT rhand
								{
									OFFSET 0 0 0
CHANNELS 3 Zrotation Xrotation Yrotation
									JOINT RFingers
									{
OFFSET 0 -0.513670 -0.000000
CHANNELS 3 Zrotation Xrotation Yrotation
										End Site
										{
OFFSET 0 -0.414140 -0.000000
										}
									}
								}
								JOINT RThumb
								{
OFFSET 0 0.000000 0.000000
CHANNELS 3 Zrotation Xrotation Yrotation
									End Site
									{
OFFSET 0 -0.420460 0.420460
									}
								}
							}
						}
					}
				}
			}
		}
	}
}
MOTION
Frames: 9
Frame Time: 0.008333333333333333
7.435298 19.563091 16.046213 177.729306 -2.801086 -165.662639 0.000000 0.000000 0.000000 -22.351671 -5.196223 -10.977361 7.095550 15.398530 49.211725 -0.177298 8.120187 0.310319 0.363703 -3.866483 -10.702261 0.000000 0.000000 0.000000 14.441366 16.084423 -34.591543 -2.288913 -9.443336 27.192371 -0.551140 2.362577 -13.405391 -0.497393 4.515980 -12.533957 -4.552532 -1.465357 1.087346 3.215326 -2.135760 2.674277 5.867644 -1.267059 2.442018 -2.828760 -0.605262 -7.770718 2.036237 0.032498 19.078091 1.174269 0.302897 7.113037 0.000000 0.000000 0.000000 -1.400719 -1.707642 -29.631724 11.850156 -19.579479 2.051828 27.064698 14.628500 22.838014 0.000000 0.000000 0.000000 -7.125000 0.000000 0.000000 -1.219159 4.664392 -1.107056 0.000000 0.000000 0.000000 -0.539062 4.647024 -30.437440 -7.400621 -12.575769 -0.817631 -20.870904 51.440267 34.612089 0.000000 0.000000 0.000000 7.125000 0.000000 0.000000 15.967372 65.766788 -8.101117
7.455069 19.603509 15.845892 177.911563 -2.864060 -165.865240 0.000000 0.000000 0.000000 -22.014575 -5.591606 -12.995351 7.830313 15.989102 51.942794 -0.166817 7.366045 -1.211127 0.350312 -3.752531 -10.388157 0.000000 0.000000 0.000000 15.111420 16.109153 -33.166831 -2.234644 -9.338549 26.860202 -0.607369 2.458386 -14.084060 -0.425479 4.184209 -11.595902 -4.291682 -1.321026 1.033194 3.212859 -1.939681 2.632068 5.718700 -1.159719 2.391143 -2.958121 -0.715390 -7.758634 2.149133 -0.116821 19.082030 1.220373 0.234016 7.116218 0.000000 0.000000 0.000000 -1.240113 -0.994302 -28.696045 11.780372 -19.474413 2.028595 28.867779 13.608064 23.351528 0.000000 0.000000 0.000000 -7.125000 0.000000 0.000000 -0.174074 3.736458 -0.162052 0.000000 0.000000 0.000000 -0.739208 3.813831 -27.153477 -7.810529 -13.244875 -0.908659 -21.767658 49.439902 34.188208 0.000000 0.000000 0.000000 7.125000 0.000000 0.000000 14.494922 65.615786 -7.288674
7.475982 19.642849 15.647220 178.104604 -2.930966 -166.063401 0.000000 0.000000 0.000000 -21.635292 -6.159544 -15.039984 8.532722 16.491303 54.449924 -0.137495 6.581009 -2.283679 0.684186 -5.229886 -14.577528 0.000000 0.000000 0.000000 15.773099 16.262855 -31.663519 -2.169273 -9.209781 26.453937 -0.669815 2.443177 -14.817034 -0.363399 3.868615 -10.707837 -4.053671 -1.197377 0.953857 3.220098 -1.771135 2.588780 5.591834 -1.067732 2.360505 -3.149334 -0.800650 -7.778523 2.293622 -0.224968 19.132849 1.291155 0.184293 7.139763 0.000000 0.000000 0.000000 -1.108055 -0.449836 -27.553808 11.581554 -19.173956 1.962859 29.333566 12.987040 23.773880 0.000000 0.000000 0.000000 -7.125000 0.000000 0.000000 0.048143 3.172031 0.045979 0.000000 0.000000 0.000000 -0.974879 2.960718 -23.647795 -8.251015 -13.958325 -1.012565 -22.681096 46.975037 33.596213 0.000000 0.000000 0.000000 7.125000 0.000000 0.000000 12.869204 65.298511 -6.365657
7.497286 19.682021 15.450058 178.191945 -3.004696 -166.318606 0.000000 0.000000 0.000000 -21.352426 -6.848562 -16.960741 9.134295 16.887019 56.543924 -0.092402 5.490502 -3.166640 0.556051 -4.709991 -13.095556 0.000000 0.000000 0.000000 16.326170 16.386357 -30.087222 -2.098253 -9.067032 26.005783 -0.737574 2.454141 -15.569526 -0.291419 3.458170 -9.558316 -3.962354 -1.077028 0.902203 3.211565 -1.608294 2.587940 5.532415 -0.983854 2.364429 -3.340939 -0.884233 -7.859372 2.436769 -0.328809 19.218399 1.362440 0.136527 7.185791 0.000000 0.000000 0.000000 -1.003960 -0.005424 -26.459053 11.368754 -18.850848 1.893655 29.419667 12.582675 23.784948 0.000000 0.000000 0.000000 -7.125000 0.000000 0.000000 0.099505 3.140919 0.093893 0.000000 0.000000 0.000000 -1.244722 2.026959 -20.136801 -8.711579 -14.698229 -1.127210 -23.443309 44.428855 33.952565 0.000000 0.000000 0.000000 7.125000 0.000000 0.000000 12.247814 65.867111 -6.207938
7.517114 19.720531 15.254841 178.181137 -3.100131 -166.615461 0.000000 0.000000 0.000000 -21.175080 -7.639471 -18.760157 9.637821 17.198639 58.267273 -0.041908 4.269850 -3.975448 0.303440 -3.400390 -9.407901 0.000000 0.000000 0.000000 16.792950 16.318121 -28.497578 -2.021081 -8.908974 25.511635 -0.804120 2.584292 -16.261295 -0.213114 2.946579 -8.131719 -3.953817 -0.929138 0.889853 3.153943 -1.406074 2.587689 5.470117 -0.879724 2.343629 -3.557443 -0.698340 -7.802190 2.716495 -0.590105 19.199422 1.444425 -0.167569 7.175464 0.000000 0.000000 0.000000 -0.855682 0.441284 -25.472113 11.169084 -18.546716 1.829485 29.486254 12.314700 23.531117 0.000000 0.000000 0.000000 -7.125000 0.000000 0.000000 0.178625 3.403511 0.167057 0.000000 0.000000 0.000000 -1.460875 1.165978 -16.700221 -9.222092 -15.511769 -1.260580 -24.027814 41.645269 34.564420 0.000000 0.000000 0.000000 7.125000 0.000000 0.000000 12.072065 66.636075 -6.333857
7.534525 19.758001 15.061964 178.073740 -3.224786 -166.949699 0.000000 0.000000 0.000000 -21.108055 -8.527544 -20.432987 10.035580 17.429706 59.606967 0.009072 2.995646 -4.751378 0.094359 -1.933808 -5.324898 0.000000 0.000000 0.000000 17.183298 15.969124 -26.921782 -1.937000 -8.733558 24.965345 -0.866000 2.884730 -16.847439 -0.130818 2.328743 -6.415184 -3.998189 -0.733476 0.924530 3.025912 -1.135234 2.565578 5.366171 -0.737584 2.265143 -3.795655 -0.129279 -7.492997 3.196831 -1.091385 19.003515 1.539318 -0.846923 7.066199 0.000000 0.000000 0.000000 -0.617118 0.943772 -24.633912 10.996803 -18.283352 1.774893 29.694998 12.157454 23.067473 0.000000 0.000000 0.000000 -7.125000 0.000000 0.000000 0.376224 3.863936 0.350007 0.000000 0.000000 0.000000 -1.569735 0.462630 -13.403033 -9.802249 -16.429275 -1.418694 -24.395172 38.527307 35.093137 0.000000 0.000000 0.000000 7.125000 0.000000 0.000000 12.100285 67.262614 -6.522002
7.552221 19.791710 14.872066 178.064965 -3.332129 -167.310190 0.000000 0.000000 0.000000 -20.884155 -9.384825 -22.096948 10.301086 17.574780 60.488597 0.048558 1.767418 -5.239174 0.436643 -4.046591 -11.231098 0.000000 0.000000 0.000000 17.698734 15.491492 -25.347761 -1.846037 -8.536714 24.357045 -0.916527 3.239518 -17.290119 -0.080875 1.807969 -4.976000 -3.903497 -0.392362 0.969354 2.790459 -0.661332 2.446901 5.072075 -0.481000 2.054333 -3.514502 -0.374530 -6.721342 3.440473 -1.562583 18.737864 1.533175 -1.049836 6.860654 0.000000 0.000000 0.000000 -0.044939 1.630167 -24.034606 10.855385 -18.066107 1.730874 29.728634 12.159282 22.611704 0.000000 0.000000 0.000000 -7.125000 0.000000 0.000000 0.464628 4.357070 0.427736 0.000000 0.000000 0.000000 -1.355268 0.072818 -10.890712 -10.487839 -17.496489 -1.620657 -24.171858 35.013436 34.693453 0.000000 0.000000 0.000000 7.125000 0.000000 0.000000 12.008810 66.804871 -6.346875
7.573499 19.821981 14.684347 178.197559 -3.419670 -167.668260 0.000000 0.000000 0.000000 -20.440360 -10.226565 -23.884801 10.414862 17.636581 60.866093 0.067322 1.542183 -5.723048 2.517377 -8.716700 -25.760174 0.000000 0.000000 0.000000 18.361688 15.183260 -23.755875 -1.755702 -8.336142 23.740562 -0.969668 3.429213 -17.772062 -0.053736 1.488356 -4.093722 -3.815340 -0.212516 1.017276 2.749099 -0.421898 2.468915 4.981366 -0.358377 2.019459 -3.519378 -0.451542 -6.775388 3.563177 -1.713376 18.929047 1.561068 -1.117674 6.938330 0.000000 0.000000 0.000000 0.165345 2.020753 -22.715769 10.718034 -17.854623 1.688549 29.631407 12.433488 22.153950 0.000000 0.000000 0.000000 -7.125000 0.000000 0.000000 0.470922 4.881383 0.429309 0.000000 0.000000 0.000000 -1.523079 -0.812367 -8.160818 -11.069872 -18.393188 -1.799574 -24.186498 31.904063 34.302580 0.000000 0.000000 0.000000 7.125000 0.000000 0.000000 11.638082 66.424687 -6.049019
7.595873 19.849078 14.498430 178.408977 -3.507315 -168.009159 0.000000 0.000000 0.000000 -19.857830 -11.111220 -25.735493 10.448791 17.654593 60.978208 0.089252 1.569765 -6.409319 4.593196 -12.910370 -39.033940 0.000000 0.000000 0.000000 19.101865 14.929587 -22.182244 -1.664936 -8.129209 23.107843 -1.022744 3.541072 -18.255071 -0.040733 1.300993 -3.577365 -3.719104 -0.112990 1.052631 2.809893 -0.298678 2.551338 4.991225 -0.301622 2.070109 -3.696502 -0.441144 -7.217467 3.652330 -1.701880 19.344888 1.620092 -1.117675 7.152687 0.000000 0.000000 0.000000 0.194836 2.282340 -21.124289 10.586355 -17.651399 1.648360 29.465392 12.858372 21.678989 0.000000 0.000000 0.000000 -7.125000 0.000000 0.000000 0.435441 5.439719 0.392297 0.000000 0.000000 0.000000 -1.883054 -1.942739 -5.417316 -11.600434 -19.201209 -1.970026 -24.462992 29.239937 34.039390 0.000000 0.000000 0.000000 7.125000 0.000000 0.000000 11.057648 66.246294 -5.695979
